<?xml version="1.0" encoding="utf-8"?>
<!-- Generator: Adobe Illustrator 26.2.1, SVG Export Plug-In . SVG Version: 6.00 Build 0)  -->
<svg version="1.1" id="Layer_1" xmlns="http://www.w3.org/2000/svg" xmlns:xlink="http://www.w3.org/1999/xlink" x="0px" y="0px"
	 viewBox="0 0 112.6 115.2" style="enable-background:new 0 0 112.6 115.2;" xml:space="preserve">
<style type="text/css">
	.st0{fill:#0D0708;}
	.st1{fill:#FEFEFE;}
</style>
<g id="b4a928e4-dfa6-4588-b7b1-86540af662a1">
	<g id="ae22d30a-6252-4cbc-bbef-f68999730862">
		<g>
			<path class="st0" d="M0,67.4c0.1-4,0.4-8.1,1.9-11.9c1.4-3.4,3.6-5.8,7.5-6c0.7,0,0.8-0.6,0.9-1c0.7-2.9,1.3-5.7,1.7-8.7
				c0.5-3.3,0.8-6.7,2.4-9.6c1.6-3.1,2.5-6.5,3.9-9.8c0.8-2.2,1.8-4.3,3-6.4c2.4-4.3,6.2-7.8,10.7-9.8C38.4,1.6,45-0.3,52.1,0
				c5.1,0.2,10.2,0.7,15,2.7c0.1,0,0.1,0.1,0.2,0.1c3.2-0.3,5.8,1.6,8.5,2.7c3.2,1.2,6.4,2.6,9.6,4.1c7.6,3.5,12.3,9.5,15.1,17.1
				c1.8,5.3,2.9,10.8,3.4,16.3c0.1,0.3,0.1,0.7,0,1c-0.9,4.6,1,8.9,0.8,13.5c0,0.4,0.2,0.5,0.6,0.6c5.9,1.2,7.6,6.2,7.3,11.5
				c-0.2,5.1-1.8,9.8-3.5,14.5c-0.2,0.5-0.6,0.9-1.1,1.2c-2.2,1.4-4.8,2-7.4,1.8C98.2,87,97,87.8,96.4,90c-0.3,1-0.7,2-1.2,2.9
				c-1.1,3.1-3.7,5.4-6.8,6.2c-2.1,0.4-3.9,1.7-4.8,3.6c-2.6,5.7-7.6,8.4-13.2,10.3c-3.5,1.1-7.1,1.9-10.8,2.3
				c-1.6,0.2-3.2-0.4-4.8-0.8c-8.7-2-16.7-5.4-23.5-11.3c-3.5-3-6.4-6.6-8.7-10.6c-0.3-0.6-0.9-1.1-1.6-1.2c-3.5-0.7-5.6-3.1-7-6.2
				c-0.5-1.1-0.6-2.7-1.4-3.3s-2.3,0.2-3.5,0.2c-3.6,0-6.5-2.1-7.9-5.9C0.3,73.3-0.1,70.3,0,67.4z M21.2,87.5v0.2h0.1L21.2,87.5
				c-1.4-3.3-1.5-7.2-4-10.3l1.4-0.1c-0.4-1.2-0.4-2.5-0.1-3.7c0.1-0.5,0.3-1-0.4-1.2c-0.4-0.1-1-0.2-0.8-0.8S18,71,18.4,71
				s1.1,0.2,1-0.6c-0.1-1.2,0.3-2.3,1-3.2c1.1-1.8,1.1-1.8-0.3-3.3c-0.1-0.1-0.1-0.1-0.1-0.2c-0.2-0.3-0.4-0.7,0-1.1
				c0.3-0.3,0.8-0.4,1.1-0.1c0,0,0,0,0,0c0.4,0.3,0.7,0.7,1.1,1.1s0.7,0.5,1.1,0.1c0.5-0.5,1-1.1,1.2-1.8c0.2-0.6-0.6-0.8-0.8-1.2
				c-0.1-0.1-0.1-0.2-0.2-0.3c-0.3-0.3-0.3-0.8,0-1.1c0.3-0.2,0.7-0.2,0.9,0.1c0,0,0,0.1,0.1,0.1c0.9,1.4,1.8,0.7,2.8,0.2
				c0.7-0.4,1-0.8,0.2-1.4c-0.3-0.2-0.5-0.5-0.7-0.8c-0.2-0.4-0.2-0.8,0.1-1.1c0.3-0.3,0.6,0,0.8,0.2c0.5,0.3,0.9,0.7,1.3,1
				c1.3,0.7,1.6-1.3,2.7-1.1c0.3,0.1,0.4-0.2,0.3-0.5c0-0.2-0.1-0.3-0.1-0.5c-0.1-0.3-0.2-0.5-0.3-0.8c-0.2-0.5-0.6-1,0.1-1.3
				c0.5-0.2,1,0,1.2,0.5c0,0,0,0.1,0,0.1c0.4,1.8,1.4,1.4,2.5,0.8c0.2-0.1,0.5-0.2,0.8-0.2c-0.2-0.6-0.4-1.1-0.6-1.6
				c-0.2-0.6-0.3-1.2-0.2-1.9c0-0.5,0.4-0.9,0.9-0.9c0.6,0,0.3,0.6,0.4,0.9c0.2,1,0.5,1.9,0.9,2.7c0.2,0.3,0.3,0.7,0.7,0.4
				c0.7-0.3,1.6-0.4,2.4-0.3c0.7,0,1.2,0.1,0.9-0.9c-0.3-0.8-0.2-1.7,0.3-2.4c0.1-0.3,0.4-0.4,0.7-0.4c0.3,0,0.4,0.4,0.4,0.7
				c0.1,0.7,0.1,1.3,0.3,2c0,0.3,0,0.8,0.7,0.5c0.9-0.4,2-0.5,2.9-0.2c0.8,0.2,1.1,0,0.9-0.8s-0.3-1.8,0.8-1.8s0.9,1,0.8,1.7
				c-0.1,1,0.3,1.3,1.2,1.3s1.9,0,2.9,0.1c0.8,0.1,1-0.3,1-1c0-0.6,0-1.1,0.2-1.7c0.2-0.5,0.8-0.9,1.3-0.8c0.6,0.1,0.5,0.7,0.4,1.1
				c-0.1,0.8-0.2,1.5-0.4,2.2c0,0.3-0.2,0.7,0.3,0.7c1,0.2,2,0.2,3.1,0.1c0.6-0.2,0.3-1.3,0.6-2c0-0.1,0-0.2,0.1-0.2
				c0.2-0.5,0.5-1.1,1.1-1s0.4,0.8,0.3,1.3c-0.1,0.7-0.5,1.6-0.2,1.9s1.3,0.3,2,0.5c0.9,0.2,1.6,0.2,1.8-0.9
				c0.1-0.3,0.3-0.6,0.6-0.9c0.4-0.4,0.9-0.8,1.5-0.4s0,0.9-0.2,1.2c-0.9,1.8-0.8,2.2,1.2,2.7c0.9,0.2,1.7,0.3,2.1-0.8
				c0.2-0.4,0.5-0.7,0.9-0.9c0.3-0.2,0.7-0.1,1,0.1c0.3,0.3,0,0.6-0.2,0.8c-0.3,0.6-0.9,1-1,1.7c0.5,0.2,1,0.5,1.5,0.8
				c1,0.8,1.9,1.2,3-0.1c0.4-0.5,1.3-0.9,1.8-0.2s-0.4,0.9-0.8,1.3s-1,0.5-0.3,1.1c1.2,1,2.4,1.9,3.6,2.8c0.6-0.8,1-1.9,2-2.3
				c0.4-0.2,1-0.1,1.3,0.3c0.3,0.5-0.2,0.7-0.4,1c-0.2,0.2-0.4,0.4-0.6,0.6c-1.1,1-1.1,1.1-0.1,2c0.2,0.2,0.4,0.5,0.6,0.7
				c0.3,0.5,0.9,0.7,1.4,0.5c0.1-0.1,0.2-0.1,0.3-0.2c0.5-0.3,1-0.5,1.5-0.7c0.5-0.2,1,0,1.2,0.5c0.3,0.6-0.4,0.6-0.7,0.8
				c-0.5,0.4-1,0.6-1.5,1c-0.3,0.2-0.6,0.4-0.3,0.8c0.7,0.8,1.2,1.7,1.9,2.4c0.4,0.4,1.2-0.2,1.8-0.2c0.2,0,0.4,0,0.6,0
				c0.4,0,0.8,0.4,0.8,0.8c0.1,0.6-0.5,0.4-0.8,0.5c-0.2,0.1-0.5,0.1-0.7,0.1c-0.8,0-1,0.2-0.7,1c0.4,0.8,0.7,1.7,0.9,2.6
				c0.1,0.5,0.6,0.9,1.1,0.9c0,0,0,0,0.1,0c0.6-0.1,1.3,0,1.9,0.3c0.4,0.2,0.6,0.4,0.5,0.8s-0.5,0.4-0.8,0.4c-0.4,0-0.9-0.1-1.3-0.2
				c-0.7-0.2-1,0-0.8,0.8c0.2,0.8,0.4,1.7,0.4,2.6c0,0.6,0.2,0.7,0.8,0.7c0.8,0,1.7,0.2,1.7,1S91,83,90.4,82.9
				c-0.4-0.1-0.7-0.2-0.7,0.4c0,1.5-0.2,3-0.7,4.5c0.8,0,1.6,0.1,2.4,0.3c0.4,0.1,0.6,0.4,0.6,0.8c0,0.4-0.5,0.4-0.8,0.4
				c-0.6,0-1.3,0-1.9-0.1c-0.6-0.1-0.8,0.1-0.9,0.6c-0.3,1.9-0.6,3.8-0.8,5.7c0,0-0.1,0.1-0.1,0.1s0.2,0.1,0.2,0
				c0.2-0.1,0.4-0.1,0.6-0.2c3-1.8,4.6-4.7,5.8-7.8c1.2-3.6,2-7.3,2.3-11c0.2-2,0.8-4,0.5-6.1c-0.6-3.7-0.8-7.4-1.2-11.1
				c-0.2-3.7-1.3-7.3-3-10.5c-0.2-0.3-0.3-0.6-0.4-1c-0.5-3-1.5-5.9-3.1-8.5c-2.2-3.8-5-7.1-7.3-10.8c-0.2-0.2-0.4-0.4-0.6-0.5
				c-5.5-3.7-11.6-6.5-18-8.4c-5.6-1.5-11.3-2-17-0.3c-1.6,0.4-3.1,1-4.6,1.8c-1.4,0.8-2.7,1.9-4.2,2.7c-1.4,0.7-2.6,1.6-3.7,2.7
				c-5.3,6-9.7,12.8-13.2,20c-4.3,8.9-6.3,18.8-5.9,28.7c-0.1,1,0.2,2,0.8,2.8c0.3,0.3,0.4,0.8,0.4,1.2c-0.4,3.6,1.4,6.1,4.2,8
				C20.5,87.5,20.8,87.8,21.2,87.5z M87,81.3c0-0.8-0.1-1.6-0.1-2.4c-0.3-2.7-0.9-5.2-2.7-7.4c-2.8-3.5-6.2-6.5-10-8.9
				c-4.5-2.9-9.5-4.7-14.8-5.4c-5.8-0.8-11.5-2.1-17.5-0.8c-5.8,1.2-11,3.1-15.3,7.3c-3.8,3.7-6,7.9-5.4,13.3
				c0.2,1.9,0.6,3.9,1.1,5.7c1.7,6.3,5.5,11.4,9.5,16.5c1.5,1.9,3.3,3.5,5.5,4.6c5.7,3,11.8,5.4,18.1,7.1c3.2,0.9,6.5,1,9.7,0.4
				c7.3-1.6,12.7-5.9,17-11.8c0.8-1.2,2-2.3,2.3-3.6C85.9,91.3,86.8,86.3,87,81.3z M14.9,50.2c0.6-0.2,0.6-0.6,0.7-0.9
				c3.6-8.9,8.7-17,15.2-24.1c1.1-1.2,2.1-2.7,3.6-3.5c2.5-1.3,4.8-2.9,7.3-4.3s4.8-2.2,7.5-1.8c0.6,0.2,1.3,0.1,1.9-0.2
				c0.9-0.6,2-0.8,3.1-0.7c4.9,0,9.5,1.4,14.1,2.9c4.7,1.4,9.2,3.6,13.3,6.5c5.2,3.9,8.6,9.2,11.3,14.9s4.6,12,6.5,18.2
				c0.1,0.4,0,1,0.7,0.9s0.3-0.7,0.3-1.1c0-3.8-0.1-7.7-0.4-11.5c-0.4-6.1-1.6-12.1-3.6-17.9C94,21,90,16.1,83.4,13.4
				c-3.4-1.4-6.7-3-10-4.7c-4.2-2.1-8.8-3-13.3-3.6c-7.4-1.2-14.9-0.6-22,1.6c-6.5,2.1-11.9,5.7-14.8,12.2c-3.2,7.4-5.7,15-7.5,22.9
				C15.1,44.5,14.8,47.3,14.9,50.2z M7,71.5c0.1,1.8,0.2,3.7,0.5,5.5c0.1,1,0.4,1.6,1.6,1.2C9.9,78,10.6,78,11.4,78
				c0.9,0.1,1.1-0.2,1-1.1c-0.3-4.1-0.2-8.3,0.4-12.4c0.4-3.3,1-6.5,1.7-9.8c0.2-0.8,0.2-1.3-0.9-1.5S11.4,53,10.2,53
				c-0.7,0-0.8,0.3-0.9,0.8c-0.2,1.3-0.4,2.5-0.6,3.8C7.8,62.2,7.2,66.8,7,71.5z M105.6,66.9c0-1.4,0-2.9,0-4.3
				c0-0.5-0.2-0.7-0.6-0.8c-1.6-0.4-3.3-0.4-5-0.2c-0.8,0.2-1.1,0.4-1,1.3c1,6.6,0.8,13.4-0.5,20c-0.2,0.7,0.1,0.9,0.8,0.9
				c1-0.1,2-0.1,3-0.1c0.9,0.1,1.2-0.3,1.4-1.1C105,77.5,105.6,72.2,105.6,66.9z M7.3,53.9c-4.6,5.1-4.6,18-1.7,22.3
				C5,68.7,6.7,61.4,7.3,53.9L7.3,53.9z M107.5,63.1c0.2,6.4-0.5,12.8-2.1,19C108.4,78.1,110.9,67.4,107.5,63.1L107.5,63.1z"/>
			<path class="st1" d="M87.6,95.4c0.3-1.9,0.6-3.8,0.8-5.7c0.1-0.5,0.3-0.7,0.9-0.6c0.6,0.1,1.3,0.2,1.9,0.1c0.3,0,0.7,0,0.8-0.4
				c0-0.4-0.2-0.7-0.6-0.8c-0.8-0.2-1.6-0.3-2.4-0.3c0.5-1.4,0.7-3,0.7-4.5c0-0.6,0.3-0.4,0.7-0.4c0.6,0.1,1.6,0.5,1.7-0.3
				s-0.9-1-1.7-1c-0.5,0-0.7,0-0.8-0.7c0-0.9-0.2-1.7-0.4-2.6c-0.2-0.8,0-1,0.8-0.8c0.4,0.1,0.9,0.2,1.3,0.2c0.3,0,0.7,0,0.8-0.4
				s-0.2-0.7-0.5-0.8c-0.6-0.2-1.2-0.3-1.9-0.3c-0.5,0.1-1.1-0.3-1.2-0.8c0,0,0,0,0-0.1c-0.2-0.9-0.5-1.8-0.9-2.6
				c-0.3-0.8-0.1-1.1,0.7-1c0.2,0,0.5,0,0.7-0.1c0.3-0.1,0.8,0,0.8-0.5c-0.1-0.4-0.4-0.7-0.8-0.8c-0.2,0-0.4,0-0.6,0
				c-0.6,0-1.5,0.6-1.8,0.2c-0.7-0.7-1.2-1.6-1.9-2.4c-0.3-0.4,0-0.6,0.3-0.8c0.5-0.3,1-0.6,1.5-1c0.3-0.2,0.9-0.2,0.7-0.8
				c-0.2-0.5-0.7-0.7-1.2-0.5c-0.6,0.2-1.1,0.5-1.6,0.8c-0.4,0.4-1.1,0.4-1.5,0c-0.1-0.1-0.2-0.2-0.2-0.3c-0.2-0.3-0.4-0.5-0.6-0.7
				c-1-1-1-1,0.1-2c0.2-0.2,0.4-0.4,0.6-0.6c0.2-0.3,0.8-0.5,0.4-1c-0.3-0.4-0.9-0.5-1.3-0.3c-1,0.4-1.4,1.5-2,2.3
				c-1.2-1-2.4-1.9-3.6-2.8c-0.7-0.5,0-0.8,0.3-1.1s1.3-0.6,0.8-1.3s-1.4-0.3-1.8,0.2c-1,1.3-1.9,0.9-3,0.1c-0.5-0.3-1-0.6-1.5-0.8
				c0.2-0.7,0.7-1.1,1-1.7c0.1-0.2,0.5-0.5,0.2-0.8c-0.3-0.3-0.7-0.3-1-0.1c-0.4,0.2-0.8,0.5-0.9,0.9C70,57,69.2,57,68.3,56.8
				c-1.9-0.5-2.1-0.9-1.2-2.7c0.2-0.4,0.8-0.8,0.2-1.2s-1.1,0-1.5,0.4c-0.3,0.2-0.5,0.5-0.6,0.9c-0.2,1.2-0.9,1.2-1.8,0.9
				c-0.7-0.2-1.6-0.1-2-0.5s0.1-1.3,0.2-1.9c0-0.5,0.3-1.2-0.3-1.3s-0.8,0.5-1.1,1c0,0.1,0,0.2-0.1,0.2c-0.3,0.7,0,1.8-0.6,2
				c-1,0.1-2,0.1-3.1-0.1c-0.5,0-0.4-0.4-0.3-0.7c0.1-0.7,0.3-1.5,0.4-2.2c0-0.4,0.2-1-0.4-1.1c-0.6-0.1-1.1,0.2-1.3,0.8
				c-0.2,0.5-0.2,1.1-0.2,1.7c-0.1,0.6-0.3,1-1,1c-1-0.1-1.9-0.1-2.9-0.1s-1.3-0.3-1.2-1.3c0.1-0.7,0.3-1.8-0.8-1.7s-0.9,1-0.8,1.8
				s-0.1,1-0.9,0.8c-1-0.3-2-0.2-2.9,0.2c-0.6,0.3-0.6-0.2-0.7-0.5c-0.1-0.7-0.2-1.3-0.3-2c0-0.3,0-0.6-0.4-0.7
				c-0.3,0-0.6,0.2-0.7,0.4c-0.5,0.7-0.6,1.6-0.3,2.4c0.3,1-0.2,1-0.9,0.9c-0.8-0.2-1.6-0.1-2.3,0.2c-0.4,0.2-0.5-0.2-0.7-0.4
				c-0.5-0.9-0.8-1.8-0.9-2.8c-0.1-0.3,0.2-0.8-0.4-0.9c-0.5,0-0.9,0.4-0.9,0.9c-0.1,0.6,0,1.3,0.2,1.9c0.2,0.5,0.4,1,0.6,1.6
				c-0.3,0-0.5,0.1-0.8,0.2c-1.1,0.6-2.1,1-2.5-0.8c-0.1-0.5-0.7-0.8-1.2-0.6c0,0,0,0,0,0c-0.7,0.3-0.3,0.9-0.1,1.3
				c0.1,0.2,0.2,0.5,0.3,0.8c0.1,0.1,0.1,0.3,0.1,0.5c0,0.2,0,0.6-0.3,0.5c-1.1-0.2-1.4,1.8-2.7,1.1c-0.5-0.3-0.9-0.7-1.3-1
				c-0.2-0.2-0.5-0.5-0.8-0.2c-0.3,0.3-0.4,0.7-0.2,1.1c0.2,0.3,0.4,0.6,0.7,0.8c0.9,0.6,0.5,1-0.2,1.4c-1,0.5-1.9,1.2-2.8-0.2
				c-0.2-0.3-0.6-0.5-0.9-0.3c0,0-0.1,0-0.1,0.1c-0.3,0.3-0.3,0.8,0,1.1c0.1,0.1,0.1,0.2,0.2,0.3c0.2,0.4,1,0.7,0.8,1.2
				c-0.3,0.7-0.7,1.3-1.3,1.8c-0.4,0.4-0.8,0.2-1.1-0.1s-0.7-0.8-1.1-1.1c-0.3-0.3-0.8-0.3-1.1,0c0,0,0,0,0,0
				c-0.4,0.4-0.2,0.7,0,1.1c0,0.1,0.1,0.1,0.1,0.2c1.3,1.6,1.3,1.6,0.3,3.3c-0.7,0.9-1.1,2.1-1,3.2c0.1,0.8-0.5,0.6-1,0.6
				s-1-0.1-1.1,0.4s0.4,0.7,0.8,0.8c0.6,0.2,0.5,0.8,0.4,1.2c-0.4,1.2-0.4,2.5,0.1,3.7l-1.4,0.1c2.5,3,2.6,6.9,4,10.3l0,0
				c-0.4,0.2-0.7,0-0.9-0.2c-2.8-1.9-4.6-4.4-4.2-8c0-0.4-0.1-0.9-0.4-1.2c-0.6-0.8-0.8-1.8-0.8-2.8c-0.4-9.9,1.6-19.7,5.9-28.7
				c3.4-7.2,7.9-14,13.2-20c1.1-1.1,2.3-2,3.7-2.7c1.5-0.8,2.8-2,4.2-2.7c1.5-0.7,3-1.3,4.6-1.8c5.7-1.7,11.4-1.2,17,0.3
				c6.4,1.9,12.5,4.7,18,8.4c0.2,0.1,0.5,0.3,0.6,0.5c2.3,3.7,5.1,7.1,7.3,10.8c1.6,2.6,2.7,5.5,3.1,8.5c0.1,0.4,0.2,0.7,0.4,1
				c1.7,3.3,2.8,6.8,3,10.5c0.4,3.7,0.6,7.4,1.2,11.1c0.3,2-0.3,4-0.5,6.1c-0.3,3.7-1.1,7.4-2.3,11c-1.2,3.2-2.8,6-5.8,7.8
				c-0.2,0.1-0.4,0.2-0.6,0.2L87.6,95.4z"/>
			<path class="st1" d="M87,81.3c-0.2,5-1.1,9.9-2.6,14.7c-0.4,1.3-1.5,2.4-2.4,3.6c-4.3,5.9-9.7,10.2-17,11.8
				c-3.2,0.6-6.6,0.5-9.7-0.4c-6.3-1.7-12.3-4-18.1-7.1c-2.1-1.1-4-2.7-5.5-4.6c-4-5-7.8-10.1-9.5-16.5c-0.5-1.9-0.9-3.8-1.1-5.7
				c-0.5-5.4,1.6-9.6,5.4-13.3c4.3-4.2,9.5-6.1,15.3-7.3c6-1.3,11.7,0,17.5,0.8c5.3,0.7,10.4,2.5,14.8,5.4c3.8,2.4,7.2,5.4,10,8.9
				c1.8,2.2,2.3,4.8,2.7,7.4C86.9,79.7,87,80.5,87,81.3z M56.4,93.1c-3.4,0.1-6.9-0.1-10.4,0.1c-0.9,0-1.1,0.4-1,1.2
				c0.4,1.8,1.2,3.4,2.5,4.6c3.8,3.8,9,5.7,14.4,5.4c5.1-0.2,8.2-2.8,9.5-7.7c0.3-0.9,0.4-1.9,0.2-2.8c-0.2-0.9-0.7-1.5-1.8-1.4
				C65.3,93,60.8,93.2,56.4,93.1z M78.4,74.8c-1.5,0-2.9,0.6-3.9,1.6C72.4,78,72,80.9,73.6,83c0.4,0.5,0.8,0.9,1.3,1.2
				c1,0.7,2.1,1.2,3.3,1.4c2.5,0.3,4.9-0.9,6.2-3c1-1.9,0.6-4.2-0.9-5.8C82.1,75.4,80.2,74.7,78.4,74.8L78.4,74.8z M31.2,82.4
				c1-0.2,2.4,0,3-1.2c0.6-1.1,1-2.3,1.2-3.5c0.3-1.9-0.6-3.8-2.3-4.7c-1.9-1-4.3-0.8-6,0.5c-2.1,1.5-2.5,4.4-1,6.4
				c0.3,0.4,0.6,0.7,1,1C28.1,81.9,29.6,82.4,31.2,82.4z"/>
			<path class="st1" d="M7,71.5c0.2-4.7,0.8-9.3,1.8-13.9c0.2-1.3,0.4-2.5,0.6-3.8c0.1-0.6,0.2-0.9,0.9-0.8c1.2,0.1,2.3,0.1,3.5,0.2
				s1,0.7,0.9,1.5c-0.7,3.2-1.3,6.5-1.7,9.8c-0.6,4.1-0.8,8.3-0.4,12.4c0.1,0.9-0.1,1.2-1,1.1c-0.8-0.1-1.5,0-2.2,0.2
				C7.9,78.6,7.6,78,7.5,77C7.2,75.2,7.1,73.3,7,71.5z"/>
			<path class="st1" d="M105.6,66.9c0,5.3-0.6,10.6-1.9,15.7c-0.2,0.8-0.5,1.2-1.4,1.1c-1-0.1-2,0-3,0.1c-0.7,0-0.9-0.1-0.8-0.9
				c1.3-6.6,1.4-13.4,0.5-20c-0.1-0.9,0.2-1.1,1-1.3c1.7-0.2,3.4-0.2,5,0.2c0.5,0.1,0.7,0.2,0.6,0.8C105.6,64,105.6,65.4,105.6,66.9
				z"/>
			<path class="st1" d="M7.3,53.9C6.7,61.4,5,68.7,5.6,76.2C2.7,71.9,2.7,59,7.3,53.9z"/>
			<path class="st1" d="M107.5,63.1c3.4,4.3,0.9,14.9-2.1,19C107,75.9,107.7,69.5,107.5,63.1z"/>
			<path class="st1" d="M21.1,87.5l0.1,0.2h-0.1C21.1,87.6,21.1,87.6,21.1,87.5L21.1,87.5z"/>
			<path class="st1" d="M87.7,95.5c-0.1,0.1-0.2,0.2-0.2,0s0.1-0.1,0.1-0.1L87.7,95.5z"/>
			<path class="st0" d="M56.4,93.1c4.5,0.1,8.9-0.1,13.4-0.6c1-0.1,1.5,0.5,1.8,1.4c0.2,0.9,0.1,1.9-0.2,2.8
				c-1.3,4.9-4.5,7.5-9.5,7.7c-5.3,0.4-10.6-1.6-14.3-5.4c-1.3-1.3-2.1-2.9-2.5-4.6c-0.2-0.9,0-1.2,1-1.2C49.5,93,53,93.1,56.4,93.1
				z M47.4,95.3c0.3,1,0.9,2,1.6,2.8c3.9,4,9.6,5.5,14.9,3.8c3-0.7,5.3-3.2,5.8-6.2c0.3-1.3,0.1-1.5-1.2-1.3c-3,0.3-6,0.5-9.1,0.4
				C55.4,94.7,51.4,94.4,47.4,95.3L47.4,95.3z"/>
			<path class="st0" d="M78.3,74.8c1.9-0.1,3.7,0.6,5,2c1.5,1.5,1.9,3.8,0.9,5.8c-1.3,2.1-3.7,3.3-6.2,3c-1.2-0.3-2.3-0.7-3.3-1.4
				c-2.2-1.3-2.9-4.2-1.6-6.4c0.3-0.5,0.7-0.9,1.2-1.3C75.5,75.4,76.9,74.8,78.3,74.8z M75.1,79.6c0,2.3,1.8,4.6,3.7,4.5
				s4.2-2.4,4.4-4.4s-2.9-3.7-4.9-3.6C76.1,76.2,75.1,77.3,75.1,79.6z"/>
			<path class="st0" d="M31.2,82.4c-1.5,0-3.1-0.5-4.3-1.4c-2-1.5-2.4-4.4-0.9-6.4c0.3-0.4,0.6-0.7,1-1c1.7-1.3,4.1-1.6,6-0.5
				c1.7,0.9,2.7,2.7,2.4,4.7c-0.2,1.2-0.6,2.4-1.2,3.5C33.5,82.4,32.1,82.2,31.2,82.4z M30.2,80.8c2,0.1,3.7-1.4,3.8-3.4
				c-0.1-2-1.7-3.5-3.7-3.5c-1.9-0.1-3.5,1.5-3.6,3.4c0,0,0,0.1,0,0.1c-0.1,1.7,1.2,3.3,3,3.4C29.8,80.8,30,80.8,30.2,80.8
				L30.2,80.8z"/>
			<path class="st1" d="M47.3,95.3c4-0.9,8-0.6,12-0.6c3,0.1,6.1-0.1,9.1-0.4c1.3-0.2,1.5,0,1.2,1.3c-0.5,3.1-2.8,5.5-5.8,6.2
				c-5.3,1.6-11,0.1-14.8-3.8C48.2,97.3,47.6,96.3,47.3,95.3z"/>
			<path class="st1" d="M75.1,79.6c0-2.3,1-3.4,3.2-3.5c1.9-0.1,5,1.6,4.9,3.6s-2.4,4.3-4.4,4.4S75.1,82,75.1,79.6z"/>
			<path class="st1" d="M30.1,80.8c-1.7,0.1-3.3-1.2-3.4-2.9c0-0.1,0-0.3,0-0.4c0-1.9,1.5-3.5,3.4-3.5c0,0,0.1,0,0.1,0
				c2,0,3.5,1.6,3.7,3.5C33.9,79.4,32.1,80.9,30.1,80.8C30.1,80.8,30.1,80.8,30.1,80.8z"/>
		</g>
	</g>
</g>
</svg>
