<svg xmlns="http://www.w3.org/2000/svg" viewBox="0 0 416.58 223.96">
  <g id="b25d81b8-a3be-46f7-97ce-118a119225d8" data-name="Layer 2">
    <g id="af9581c8-1351-447d-b939-a79647342bd5" data-name="Layer 1">
      <g>
        <path d="M232.89,197.59c.61-3.34,1.19-6.46,1.77-9.58q3.33-18,6.66-35.91c2.15-11.62,4.3-23.23,6.8-34.78C251,104,254.19,90.79,258.24,77.78a13.32,13.32,0,0,1,.88-2.22c1.57-3,4.88-3.23,6.92-.57a36,36,0,0,1,5.38,10.77,86.45,86.45,0,0,1,3.29,17.15,225.88,225.88,0,0,0,5.37,29.18c1.82,7.27,3.84,14.51,4.88,22,.76,5.42,1.42,10.85,1.76,16.32a238.08,238.08,0,0,0,4.47,33.21c.59,2.89,1.29,5.76,1.94,8.64a5.32,5.32,0,0,1-.63,3.7,5.28,5.28,0,0,0-.89,3.52c.12.59-.36.63-.71.75a4.12,4.12,0,0,1-5.55-3.46c-.51-4.89-1.46-9.71-2.1-14.58-1-7.37-2-14.72-3-22.09-2.36-18-4.42-36-8.88-53.61-.29-1.16-.54-2.34-.93-3.47-1.58-4.55-1.63-9.33-2.18-14-.8-6.9-1.18-13.86-3.37-20.53-.31-.93-.68-1.83-1.08-2.89a5.2,5.2,0,0,0-1.37,2.38c-.57,1.66-1.05,3.36-2.46,4.58a1.27,1.27,0,0,0-.31.88c-1.55,12.4-4.76,24.44-7.83,36.51a201.82,201.82,0,0,0-5.62,29.75,14.88,14.88,0,0,0-.16,2.74c.43,4.76-1.84,8.92-2.85,13.36a156.71,156.71,0,0,0-3.05,19.51c-.76,7.67-1.56,15.34-3.61,22.81a4.09,4.09,0,0,1-5.34,3.05,2.11,2.11,0,0,1-1.36-1.2,38.44,38.44,0,0,1-3.29-11.59c-.59-3.82-1.24-7.65-1.72-11.49s-.82-7.78-1.19-11.67c-.77-8.32-1.8-16.6-3-24.86q-2.22-15.6-5.21-31.07-4-20.64-9.07-41c0-.16,0-.32-.09-.47-.58-1.72-1.29-1.89-2.46-.56a18.64,18.64,0,0,0-3.74,7.95c-2.4,9.15-4.34,18.41-6,27.72a214.47,214.47,0,0,0-2.87,21.85,1.2,1.2,0,0,1-.26.77c-1.82,2.12-2.21,4.71-2.4,7.37-.22,3.19-.11,6.42-.75,9.55-2.64,13-4.42,26.06-5.76,39.21-.65,6.48-1.23,13-1.84,19.45a3.92,3.92,0,0,1-2.82,2.87c-1.2.27-2.18-.27-2.9-1.6a10.41,10.41,0,0,1-.7-7.24c.38-2,.84-4,1.18-6,.38-2.23-.11-4.44.09-6.68.69-7.88,1.48-15.75,2.54-23.59,1.46-10.77,3.3-21.47,5.7-32.06,2.06-9.09,3.18-18.33,4.79-27.49s2.64-18.34,5.54-27.19c2.2-6.72,5-13.11,9.51-18.68A3.2,3.2,0,0,1,208,73a6.58,6.58,0,0,1,1.29,1.71,46,46,0,0,1,4.29,11.51c4.35,16.08,7.65,32.39,10.39,48.81,2.21,13.24,4.05,26.53,5.65,39.85.82,6.78,1.5,13.58,2.23,20.37A3.67,3.67,0,0,0,232.89,197.59Z" fill="#02aeee"/>
        <path d="M102.7,45.83c-.09,9.4-2.74,18.87-6.82,28a113,113,0,0,1-6.36,12.08,3.62,3.62,0,0,1-1.22,1.27c-4.22,2.67-8.27,5.6-12.41,8.4a40.29,40.29,0,0,1-15.79,6.26c-5.34.93-10.62,2.24-15.92,3.38-4.68,1-9.36,2-14,3a5.37,5.37,0,0,0-3.63,5.15q1.27,10.33,2.48,20.7c1.11,9.56,2.32,19.09,4.18,28.55A149.64,149.64,0,0,1,36,191.48c0,1-.17,1.57-1.27,1.84-1.35.34-2.58,1.07-4,1.4-2,.47-5.7-1.73-6.22-3.71a2.75,2.75,0,0,1,.8-2.63,2.18,2.18,0,0,0,.61-1.6c-.19-7.23-.61-14.45-1.2-21.65-.48-5.89-1-11.79-1.56-17.67-1-9.61-2-19.23-3.44-28.78-1.39-9-2.68-18-4-27-1.12-7.78-2.18-15.58-3.29-23.37-.62-4.39-.77-8.83-1.23-13.24A289.06,289.06,0,0,0,6.58,25.36C5.8,21.65,4.9,18,4.09,14.26A3.42,3.42,0,0,0,3,12.33,11.76,11.76,0,0,1,.45,9.2,3.26,3.26,0,0,1,.51,5.81,8.26,8.26,0,0,1,8.28,1.52c2.91,0,5.82.28,8.73.4a15.35,15.35,0,0,0,5.19-.77C26.55-.2,31-.11,35.51.17c3.87.25,7.69.9,11.51,1.52a42,42,0,0,0,5,.23c9.75.38,18.59,3.59,26.82,8.67A93.13,93.13,0,0,1,99.94,29.11a3.25,3.25,0,0,1,.64,1.27A52,52,0,0,1,102.7,45.83ZM36.64,10.32c-2.56,0-5.12.1-7.67.29a118.15,118.15,0,0,0-13.64,1.81c-.52.1-1,.1-.86.92.53,4,1,7.93,1.45,11.89,1,8.41,2,16.82,3,25.22.25,2,.08,4.13,1,6a44.48,44.48,0,0,1,3.35,10.34c1.26,6.17,1.25,12.47,1.89,18.7a72.28,72.28,0,0,0,1.95,11.68c.19.71.43,1.08,1.31.92,1.21-.21,2.46-.23,3.69-.34a125.12,125.12,0,0,0,25.6-4.87c8.31-2.59,16.07-6.24,22.71-12a6.49,6.49,0,0,0,1.66-2A126.31,126.31,0,0,0,90.39,59c1.66-5.49,3-11,2.21-16.85-.47-3.67-1.32-7.27-3.53-10.32A46.53,46.53,0,0,0,69.14,16.4C58.76,12,47.83,10.4,36.64,10.32Z" fill="#02aeee"/>
        <path d="M356.6,32.47c7.51.09,14.42,1.52,20.47,5.88,7.27,5.22,11.19,12.43,12.38,21.19,1.32,9.67-.95,18.54-6.06,26.76a159.94,159.94,0,0,1-14.46,19.84c-.59.68-.73,1,.25,1.5,5.05,2.65,10.23,5.06,15.05,8.15a35.29,35.29,0,0,1,7.78,6.53,27.57,27.57,0,0,1,5.76,12.49c2.82,12.68.83,24.5-6.76,35.23-4.12,5.83-10,9-16.68,10.65-4.92,1.22-9.9,2.2-14.84,3.33a1.93,1.93,0,0,1-2.05-.7,7.11,7.11,0,0,1-1.88-5c-.59-8.92-1.31-17.84-2-26.76-.65-8.16-1.3-16.32-2-24.48q-1.31-14.61-3-29.2-2.1-17.79-4.91-35.47Q341.56,49.68,339,37c-.17-.86-.15-1.27.86-1.25a2.68,2.68,0,0,0,1.36-.42c2.61-1.69,5.64-1.89,8.58-2.35A51.24,51.24,0,0,1,356.6,32.47ZM359,41.25a31.62,31.62,0,0,0-8.31,1.33c-.55.15-.88.32-.8,1,.51,4.44,1,8.89,1.44,13.34,1.12,10.44,2.21,20.89,3.37,31.33.24,2.18.19,4.41.92,6.51.84,2.45,1.76,4.88,2.62,7.32.25.73.47.93,1.18.37a49,49,0,0,0,7.46-7.43c5.54-6.8,9.69-14.44,13.48-22.3,1.36-2.82,1.93-5.65.75-8.67a6,6,0,0,1-.25-1.41,32.24,32.24,0,0,0-4.7-12.7C372.43,43.83,366.86,41.15,359,41.25Zm31,108c0-.52.11-1,.12-1.55s-.07-1-.08-1.56a37.28,37.28,0,0,0-5.51-18.73,4.4,4.4,0,0,0-1.31-1.37c-3.25-2.19-6.56-4.27-10-6.13a48.62,48.62,0,0,0-12.76-5c-.82-.18-1.19-.09-1.32.88a22.76,22.76,0,0,0,.46,7.5c.67,3.37,1.63,6.69,1.58,10.16a59,59,0,0,0,0,7.52c1.1,9.64,2.09,19.3,3.11,29,.26,2.48.23,2.48,2.72,3,.82.17,1.65.32,2.46.54a2.07,2.07,0,0,0,1.28,0,73.81,73.81,0,0,0,8.38-3.21,15.93,15.93,0,0,0,8.25-8.47A36.09,36.09,0,0,0,390,149.2Z" fill="#02aeee"/>
        <path d="M133.17,204.75c.41-2.62-.51-5.71-.75-8.85-.32-4.19-.34-8.38-.36-12.57s0-8.2-1.32-12.1c-.86-2.59-.65-5.21-.84-7.81-.48-6.35-1.38-12.63-2.26-18.92a1.57,1.57,0,0,0-1.36-1.41,44.69,44.69,0,0,0-10.68-1.26c-1.84-.06-3.67-.1-5.51-.2-3.4-.18-5.23,1.45-5.73,5-1.25,9-2.39,18.13-3.86,27.14-1.26,7.68-2.94,15.28-4.4,22.93-.85,4.47-1.6,9-2,13.49A9.57,9.57,0,0,1,92.9,214a4.82,4.82,0,0,1-6.62,2.2,3.28,3.28,0,0,1-2-3.85c3-12.79,5.49-25.67,7.9-38.58,3.36-17.94,6-36,8.91-54,1.09-6.78,2.09-13.57,3.36-20.32.64-3.36,1.84-6.6,2.67-9.93C109.38,80.3,111,71,112.51,61.64c.19-1.19.43-1.9,1.89-1.93,2-.06,3.93-.63,5.94-.64a7.15,7.15,0,0,1,1.78.25,2.39,2.39,0,0,1,1.92,2c2.38,10.36,4.19,20.82,5.77,31.32.86,5.68,1.92,11.36,2.42,17.07.66,7.55,2.39,15,1.85,22.66a1.39,1.39,0,0,0,.68,1.28c1.57,1.25,2.18,3.13.73,4.8a1.23,1.23,0,0,0-.17,1.12c1.09,8.08,1.91,16.19,2.79,24.29.9,8.3,1.7,16.61,2.07,24.95.13,3,.21,6,.22,9a8.68,8.68,0,0,0,.6,2.42,26.52,26.52,0,0,1,1.32,8.61,8.65,8.65,0,0,1-.73,3.25,4.17,4.17,0,0,1-7.2.67,6.35,6.35,0,0,1-1.22-3.7C133.16,207.79,133.17,206.55,133.17,204.75Zm-15-127-.28,0c-.51,1.27-1.08,2.51-1.51,3.81-2.49,7.58-3.74,15.42-4.79,23.29-1.21,9.14-2.28,18.3-4.2,27.33-.14.68-.1.93.67.93,5.67,0,11.35,0,17,0,.72,0,.88-.3.85-.94-.06-1.07-.08-2.15-.11-3.23a169.3,169.3,0,0,0-2.42-23.45c-1.13-6.65-2.51-13.25-3.77-19.87C119.14,83,118.66,80.39,118.17,77.78Z" fill="#02aeee"/>
        <path d="M161.21,90.64c.57-1.47,1.08-2.8,1.6-4.13,4.25-10.81,8.63-21.56,12.68-32.44,2.48-6.63,5.25-13.1,8.36-19.45a2.26,2.26,0,0,1,2.23-1.55,6.32,6.32,0,0,1,3.55.79,2,2,0,0,1,1,2.32,14.69,14.69,0,0,1-2.06,5,20.33,20.33,0,0,0-2.52,6.27,40.07,40.07,0,0,1-2.67,7c-2,4.65-4.07,9.28-6.14,13.91a6.24,6.24,0,0,0-.56,2.05,15.57,15.57,0,0,1-1.81,5.54c-1.21,2.39-2.55,4.74-2.11,7.59a1.85,1.85,0,0,1-.3.89,73.81,73.81,0,0,0-6.79,23.71,61.37,61.37,0,0,0,1,19.31,42,42,0,0,1,.46,7.75c.26,10.15.45,20.3.4,30.45a152.62,152.62,0,0,1-.51,15.57c-.24,2.25-.91,3.16-2.75,3.5a2.8,2.8,0,0,1-3-1.17c-.64-.92-1.26-1.85-1.89-2.77a1.76,1.76,0,0,1-.36-1.11c.61-9.9.79-19.81.7-29.72a338.09,338.09,0,0,0-2.9-41.81c-.85-6.29-3.2-12.09-5.46-17.93s-4.7-11.35-7.24-17a3.1,3.1,0,0,1-.38-2.16,3,3,0,0,0-.37-2.09c-2.54-4.88-3.26-10.39-5.48-15.39a70.76,70.76,0,0,1-4.77-14A45.55,45.55,0,0,1,132.2,34a1.48,1.48,0,0,1,.66-1.42c2.58-2.05,7.14-.55,7.81,2.69,1,4.66,2.39,9.18,3.8,13.71a277.19,277.19,0,0,0,16.2,40.65C160.81,89.93,161,90.2,161.21,90.64Z" fill="#02aeee"/>
        <path d="M294.87,148a104.47,104.47,0,0,1,2.53-24.48c.87-3.93,1.4-7.94,2.33-11.86,1.15-4.84,3.48-9,7.82-11.76.4-.25.77-.59,1.31-.48,2.49.48,4.92-.24,7.38-.38,3-.17,5.92-.44,8.67,1.07a5.53,5.53,0,0,1,1.4.91c1.66,1.78,3.83,2.85,5.85,4.11.45.29.9.52.82,1.17a.7.7,0,0,0,.25.65c2.47,2,2.91,5,3.66,7.75,1.36,5,1.36,10.18,1.73,15.32a171.21,171.21,0,0,1,.13,18.68c-.1,2.63-1,5.24-1.6,7.84-1.29,5.59-2.14,11.28-4,16.74a58.28,58.28,0,0,1-6.66,13.47c-2.83,4.2-6.92,6-11.82,6.59-4.66.56-8.17-1.17-10.91-4.79-1.33-1.75-2.57-3.57-3.94-5.29a8.42,8.42,0,0,1-1.69-3.75,167.59,167.59,0,0,1-3.2-26.13C294.83,151.57,294.87,149.77,294.87,148ZM303,154.2c0,.64,0,1.28,0,1.92a58.22,58.22,0,0,0,1.49,16.06c1.32,4.92,3.47,9.36,7.66,12.53.28.22.62.55.91.53,2.33-.12,4.65-.32,6.34-2.26,4.67-5.38,6.78-12,8.68-18.63,1.27-4.43,1.93-9,2.93-13.57a35.86,35.86,0,0,0,1.22-10.2c-.4-6-.9-12-1.34-18a18.3,18.3,0,0,0-3.38-9.71c-2.09-2.85-4.56-5.21-8.56-4.6a.83.83,0,0,1-1.08-.79c-.18-1.18-.85-1.44-2-1.1a14.56,14.56,0,0,1-4.31,1,2.46,2.46,0,0,0-2.34,1.4,25.51,25.51,0,0,0-2.82,7.09c-1,5.3-1.81,10.63-2.59,16a54.9,54.9,0,0,0-1.07,8.55C302.84,144.93,303.08,149.56,303,154.2Z" fill="#02aeee"/>
        <path d="M45.68,174.87c.1-11.07,0-22.14-.15-33.21-.05-6.46-.51-12.93-.6-19.4,0-2,0-3.91,0-5.87a1,1,0,0,1,.33-.84,5.7,5.7,0,0,1,7.11,0,1.34,1.34,0,0,1,.39,1.29c-.39,8.23-.53,16.46-.36,24.69.37,18.1.8,36.2.66,54.3a5.14,5.14,0,0,1-.42,2.07c-.82,2-.55,4.09-.8,6.14-.07.58.47.58.81.69a24.6,24.6,0,0,0,7.33,1c3.6,0,7.22-.24,10.76.5a22.2,22.2,0,0,0,7.13.24c1.09-.12,1.31.25,1.26,1.22a38.8,38.8,0,0,1-.15,4.31,2.83,2.83,0,0,1-3.18,2.57c-6.79-.3-13.53-1.13-20.26-2-3.68-.5-7.35-1.09-11-1.58-1-.13-1.29-.39-1.07-1.47a134.9,134.9,0,0,0,2.25-22.15C45.77,183.18,45.68,179,45.68,174.87Z" fill="#02aeee"/>
        <path d="M416.58,165.46a7.74,7.74,0,0,1-5.26,7.41,1.46,1.46,0,0,1-1.13-.11,48.43,48.43,0,0,1-7.37-4.22.92.92,0,0,1-.44-.78,7.21,7.21,0,0,1,4.85-7.79,7.77,7.77,0,0,1,4.29-.75C414.86,159.88,416.58,162,416.58,165.46Z" fill="#02aeee"/>
      </g>
    </g>
  </g>
</svg>
