<svg id="Layer_1" data-name="Layer 1" xmlns="http://www.w3.org/2000/svg" viewBox="0 0 58.91 112"><defs><style>.cls-1{fill:#03aeee;}</style></defs><path class="cls-1" d="M5.9,2.3l2.33.24a20.68,20.68,0,0,0,6.64-.7,25.12,25.12,0,0,1,7.79-.12c2.51.2,5,.79,7.52.86A31.26,31.26,0,0,1,45.94,7.51,54.87,54.87,0,0,1,58,18a6.18,6.18,0,0,1,1.09,3.14c1.45,7.13.29,14-2.36,20.65a65.93,65.93,0,0,1-4.44,8.9,3.22,3.22,0,0,1-1.08,1.09c-2.59,1.72-5.13,3.55-7.76,5.22a25.32,25.32,0,0,1-8.84,3.21c-5.07,1-10.11,2.16-15.16,3.25-1,.22-2.1.27-2.85,1.27a3.06,3.06,0,0,0-.71,2.36c.7,5,1.25,10,1.82,15.05.5,4.53,1.31,9,2.16,13.5a82.45,82.45,0,0,1,1.24,9.95c.13,2,.23,4,.29,6.05,0,.51-.11.83-.64,1s-1,.43-1.55.62A3.58,3.58,0,0,1,15,111.84a1.23,1.23,0,0,1-.13-1.29c1.16-1.57.62-3.35.57-5-.1-3.14-.31-6.29-.6-9.44-.19-2.13-.31-4.29-.5-6.42-.24-2.6-.51-5.21-.82-7.81-.2-1.63-.35-3.29-.52-4.94-.29-2.89-.75-5.76-1.16-8.64Q11.42,65.63,11,63c-.59-3.44-1.05-6.91-1.56-10.36-.43-2.94-.87-5.89-1.18-8.85-.25-2.34-.72-4.66-.88-7-.13-1.81-.27-3.61-.47-5.41-.37-3.26-.83-6.51-1.41-9.73-.4-2.16-.87-4.31-1.28-6.47-.36-1.92-.84-3.81-1.36-5.69-.22-.77-1-1.08-1.38-1.7A3.18,3.18,0,0,1,3.36,2.66,7.21,7.21,0,0,1,5.9,2.3ZM21.75,7.45a67.81,67.81,0,0,0-11.64,1C9.2,8.65,9,9,9.08,9.86q1,8,1.94,16.08a44.48,44.48,0,0,0,2.33,11.37c1.39,3.51,1.35,7.34,1.61,11.08a46.11,46.11,0,0,0,1.24,8.67c.12.46.17.9.92.84a87.84,87.84,0,0,0,13.1-2c5.87-1.44,11.44-3.56,16.18-7.48a4.59,4.59,0,0,0,1.32-1.35c2.73-5.4,5.27-10.88,6.1-17,.57-4.1,0-8-2.73-11.34a26.56,26.56,0,0,0-8.66-6.88C35.93,8.59,29,7.49,21.75,7.45Z" transform="translate(-0.79 -1.47)"/><path class="cls-1" d="M37.28,106.57a3.87,3.87,0,0,1-2.52,3.72.92.92,0,0,1-.73-.05,21,21,0,0,1-3.42-2,.67.67,0,0,1-.36-.62,3.43,3.43,0,0,1,1.55-3.31c1.32-.78,2.71-1.22,4.17-.32A2.68,2.68,0,0,1,37.28,106.57Z" transform="translate(-0.79 -1.47)"/></svg>