<svg id="Layer_1" data-name="Layer 1" xmlns="http://www.w3.org/2000/svg" viewBox="0 0 600 100"><defs><style>.cls-1{fill:#03aeee;}</style></defs><path class="cls-1" d="M286,99.91a3.68,3.68,0,0,1-.88-3.47c.76-2.86.56-5.81.84-8.71a208.08,208.08,0,0,1,3.74-23.67c.85-4,1.39-8,2-12,.75-4.63,1.44-9.28,3.31-13.63a22.84,22.84,0,0,1,3.08-5.33,1.46,1.46,0,0,1,2.56.11,13.1,13.1,0,0,1,1.46,3,210.47,210.47,0,0,1,5.1,22.88c1.24,7.25,2.21,14.54,3.06,21.85.22,1.87.39,3.74.59,5.62a2.84,2.84,0,0,0,.5,1.58c.26-1.35.48-2.54.71-3.73,2.4-12.71,4.5-25.49,7.48-38.09.9-3.83,1.91-7.64,3.1-11.39.29-.93.59-1.91,1.74-2.05s1.71.66,2.24,1.49a20.61,20.61,0,0,1,3,9,153,153,0,0,0,4.08,21.13,66.86,66.86,0,0,1,1.66,12,107.63,107.63,0,0,0,2.71,17.67,3,3,0,0,1-.25,2.26,1.73,1.73,0,0,0-.33,1.06c.09.63-.26.73-.75.77a1.81,1.81,0,0,1-2-1.59c-.49-3.47-1-6.93-1.46-10.4-.63-4.65-1.22-9.31-1.86-14A130.74,130.74,0,0,0,327.86,54a37,37,0,0,1-.75-5.85,39.14,39.14,0,0,0-1.55-8.79q-.13-.36-.3-.72s-.09-.06-.14-.1c-.35.34-.39.84-.62,1.22-1.71,2.82-1.55,6.1-2.33,9.15-1.23,4.79-2.36,9.61-3.48,14.43a61,61,0,0,0-1.48,11.1,2.48,2.48,0,0,1-.13.76,46.86,46.86,0,0,0-2.33,11.72,67.8,67.8,0,0,1-1.56,10.12,2.3,2.3,0,0,1-.84,1.38,1.55,1.55,0,0,1-2.37-.59c-1.08-2.27-1.27-4.74-1.67-7.17-.94-5.77-1.21-11.63-2.05-17.42-1-6.94-2.17-13.85-3.6-20.71q-1.31-6.28-2.87-12.53l0-.17c-.1-.39-.17-.91-.57-1s-.72.41-.95.76a11.65,11.65,0,0,0-1.58,4,144,144,0,0,0-3.6,20,4,4,0,0,1-.67,2.18,3.69,3.69,0,0,0-.57,2.16c0,4.15-1.13,8.14-1.7,12.2-.67,4.68-1.21,9.37-1.65,14.07-.13,1.47-.27,2.94-.36,4.42-.05.7-.71.84-1,1.29Z"/><path class="cls-1" d="M212,1.06l1.8.18A15.55,15.55,0,0,0,219,.7a19.29,19.29,0,0,1,6-.08c1.94.14,3.84.6,5.81.65A24.18,24.18,0,0,1,243,5.09a42.51,42.51,0,0,1,9.29,8.1,4.81,4.81,0,0,1,.85,2.43,27.63,27.63,0,0,1-1.83,16,51.12,51.12,0,0,1-3.42,6.87,2.59,2.59,0,0,1-.84.84c-2,1.34-4,2.74-6,4a19.48,19.48,0,0,1-6.83,2.48c-3.92.78-7.81,1.67-11.71,2.52-.8.17-1.63.2-2.2,1a2.32,2.32,0,0,0-.55,1.82c.54,3.87,1,7.75,1.4,11.63.39,3.49,1,7,1.67,10.42a63.6,63.6,0,0,1,1,7.69c.1,1.55.18,3.11.22,4.67,0,.39-.08.64-.49.76s-.79.33-1.2.48a2.76,2.76,0,0,1-3.27-1.1.93.93,0,0,1-.1-1c.89-1.21.48-2.59.44-3.86-.08-2.43-.24-4.86-.46-7.29-.15-1.65-.24-3.31-.39-5-.18-2-.4-4-.64-6-.15-1.26-.27-2.55-.39-3.82-.23-2.23-.58-4.45-.9-6.68-.2-1.37-.4-2.74-.64-4.11-.45-2.66-.8-5.34-1.2-8-.33-2.27-.67-4.55-.91-6.84-.19-1.8-.55-3.6-.68-5.41-.1-1.4-.21-2.79-.37-4.18-.28-2.52-.63-5-1.09-7.52-.3-1.67-.66-3.32-1-5-.28-1.48-.65-2.94-1.05-4.39-.17-.6-.76-.84-1.07-1.32a2.45,2.45,0,0,1,1.47-3.93A5.7,5.7,0,0,1,212,1.06Zm12.24,4a52.09,52.09,0,0,0-9,.81c-.7.11-.88.35-.79,1.05q.78,6.19,1.5,12.42a33.62,33.62,0,0,0,1.8,8.78c1.07,2.71,1,5.67,1.24,8.56a36.18,36.18,0,0,0,1,6.7c.09.35.14.69.71.64a66.32,66.32,0,0,0,10.12-1.55,30.44,30.44,0,0,0,12.5-5.77,3.65,3.65,0,0,0,1-1c2.11-4.17,4.07-8.4,4.71-13.09a10.79,10.79,0,0,0-2.11-8.76,20.38,20.38,0,0,0-6.68-5.31A35.06,35.06,0,0,0,224.28,5Z"/><path class="cls-1" d="M371.61,48l5.09,2.68,1,.54c5.14,2.72,7.33,7.16,7.54,12.79a17.84,17.84,0,0,1-4.79,13.44,12.83,12.83,0,0,1-7.06,3.48c-1.76.37-3.51.77-5.26,1.16a1.65,1.65,0,0,1-2.06-1.52c-.19-1.93-.33-3.86-.47-5.8-.65-8.72-1.33-17.44-2.25-26.14-1.12-10.54-2.59-21-4.72-31.42-.2-1,.42-.83.9-1.07a16.42,16.42,0,0,1,8.24-1.23,13.42,13.42,0,0,1,10.54,5.22,14.79,14.79,0,0,1,2.84,10.49,18.09,18.09,0,0,1-3,8.43,75.52,75.52,0,0,1-6.09,8.35C371.93,47.57,371.8,47.76,371.61,48Zm-4.23-1.84A18,18,0,0,0,370,43.75a44,44,0,0,0,6.29-9.65,7.56,7.56,0,0,0,1-5.62A18.79,18.79,0,0,0,374.64,22,7.2,7.2,0,0,0,370.18,19a13.76,13.76,0,0,0-6,.24c-.65.15-.71.49-.65,1.05.7,6.42,1.42,12.84,2,19.26A20.31,20.31,0,0,0,367.38,46.16Zm13.91,19.7a17.53,17.53,0,0,0-1.65-7.4,6.17,6.17,0,0,0-2.41-2.75,33.62,33.62,0,0,0-8.48-4.12c-1.14-.32-1.23-.25-1.24.93a9.14,9.14,0,0,0,.13,1.81,54.24,54.24,0,0,1,.82,7.64c.21,4.82.94,9.62,1.46,14.43,0,.22,0,.53.25.59.84.17,1.69.66,2.53.41a19,19,0,0,0,4.35-1.73,7.07,7.07,0,0,0,3.18-3.77A17.45,17.45,0,0,0,381.29,65.86Z"/><path class="cls-1" d="M267.16,91.65c-.13-2.92-.58-5.82-.5-8.75a19,19,0,0,0-.45-5.78c-.72-2.52-.41-5.12-.86-7.66-.26-1.48-.46-3-.61-4.47-.07-.72-.45-1-1.07-1.1a31.26,31.26,0,0,0-5-.49c-.64,0-1.28,0-1.91,0a2,2,0,0,0-2.3,1.86c-.25,1.37-.4,2.75-.58,4.13-.79,6.35-2,12.63-3.25,18.91a45.2,45.2,0,0,0-.8,5.32,4.46,4.46,0,0,1-.68,2.13,2.13,2.13,0,0,1-3,.67,1.41,1.41,0,0,1-.75-1.67c2.34-10.25,4.24-20.58,5.85-31,1-6.38,2-12.76,3.12-19.12.47-2.55,1.37-5,1.9-7.57.64-3.12,1.22-6.25,1.71-9.39.08-.51.26-.68.76-.72.92-.06,1.83-.27,2.76-.29S263,27,263.18,28c1.19,5.23,2,10.51,2.85,15.81.62,3.95,1,7.93,1.47,11.89a15.22,15.22,0,0,1,.1,2.34c0,.81-.11,1.58.65,2.19a1,1,0,0,1,.15,1.36,1.93,1.93,0,0,0-.19,1.48c.56,5,1.13,10,1.63,15,.34,3.38.49,6.76.57,10.15a21.49,21.49,0,0,0,.73,3.38,5.06,5.06,0,0,1-.16,2.83c-.26.68-.61,1.23-1.47,1.25a2,2,0,0,1-2-1.07A6.21,6.21,0,0,1,267.16,91.65Zm-6.71-56.79-.33.71a41.78,41.78,0,0,0-2.39,10.09c-.64,4.42-1.08,8.88-2,13.26-.1.53.07.63.56.63,2.35,0,4.69,0,7,0,.44,0,.62-.11.59-.58-.1-1.62-.14-3.23-.27-4.84a111.88,111.88,0,0,0-2-13C261.25,39.12,260.88,37.11,260.45,34.86Z"/><path class="cls-1" d="M279.62,40.64c.86-2.21,1.61-4.24,2.43-6.24,2.19-5.38,4.1-10.88,6.46-16.2.34-.77.73-1.52,1.1-2.27a1.63,1.63,0,0,1,2.26-.66c.86.33,1,.76.69,1.82a2.88,2.88,0,0,1-.18.49c-2.18,4.31-3.51,9-5.59,13.34a20.46,20.46,0,0,0-1.68,4.68c-.64,3.29-2.32,6.2-3,9.47a30.44,30.44,0,0,0-.11,12,30.2,30.2,0,0,1,.24,5.29c.15,5.5.2,11,.07,16.52,0,.75-.1,1.5-.17,2.25a1.36,1.36,0,0,1-1.13,1.36,1.51,1.51,0,0,1-1.62-.72,3.87,3.87,0,0,1-.77-2.71,222.77,222.77,0,0,0-.26-24.24c-.41-7.22-2.73-13.8-5.7-20.25a5.82,5.82,0,0,1-.94-3.11.92.92,0,0,0-.12-.41c-1.28-2.82-1.9-5.88-3.18-8.71a21.88,21.88,0,0,1-1.63-5.75c-.21-1.45-.05-1.81,1-2a2.19,2.19,0,0,1,2.66,1.52,34.12,34.12,0,0,0,.93,3.61,123.45,123.45,0,0,0,7.64,19.92C279.21,39.88,279.36,40.16,279.62,40.64Z"/><path class="cls-1" d="M358.58,63.52c.29,2.93-.84,6.11-1.44,9.38a28,28,0,0,1-2.6,7.9c-.88,1.69-1.71,3.5-3.49,4.47-2,1.1-4.17,1.6-6.41.54a4.15,4.15,0,0,1-1.36-1.17c-1.59-1.86-3-3.77-3.31-6.37s-.87-5.41-1-8.13a61.71,61.71,0,0,1,.1-8.49,104.71,104.71,0,0,1,2.13-11.94,8.12,8.12,0,0,1,3.27-4.89c.65-.48,1.21-.09,1.79-.15a13.78,13.78,0,0,1,5.16-.1,3.76,3.76,0,0,1,1.91,1.09,2.33,2.33,0,0,0,.66.54c2.23,1.09,3.21,3.06,3.71,5.34a46.39,46.39,0,0,1,.73,7.63C358.52,60.47,358.56,61.76,358.58,63.52Zm-16,3.2a54.29,54.29,0,0,0,.32,8.49,11.64,11.64,0,0,0,2.94,6.55,2.64,2.64,0,0,0,4.17-.24,16,16,0,0,0,2.29-4,45.44,45.44,0,0,0,2.45-8.93,21.36,21.36,0,0,0,.81-5.83c-.13-2.26-.36-4.51-.49-6.76a9.38,9.38,0,0,0-2-6A3.4,3.4,0,0,0,350,48.55c-.43.06-.72-.06-.82-.54s-.34-.41-.68-.34c-.78.18-1.58.34-2.37.5a1.06,1.06,0,0,0-.72.58,10.83,10.83,0,0,0-1.2,3C343.35,56.89,342.11,62,342.62,66.72Z"/><path class="cls-1" d="M231.39,54.37c-.28,6.31,0,12.63.09,18.94.09,4.75.1,9.51.06,14.26,0,1-.47,1.88-.52,2.88,0,.68.2.93.81,1a13.27,13.27,0,0,0,2.59.3,28.57,28.57,0,0,1,6.05.42,6.1,6.1,0,0,0,1.9-.07c.58-.07.78.14.72.71s0,.87,0,1.3c0,1.17-.5,1.63-1.65,1.59-3.16-.14-6.29-.56-9.42-1-1.41-.19-2.81-.42-4.21-.6-.49-.06-.64-.23-.54-.73a65.85,65.85,0,0,0,1.06-12.53c0-5.88.05-11.76-.1-17.64-.08-3.45-.3-6.89-.28-10.34a1.61,1.61,0,0,1,2-1.74c1,.12,1.45.58,1.43,1.61Z"/><path class="cls-1" d="M393.09,73.85a3.49,3.49,0,0,1-2.27,3.35.84.84,0,0,1-.66,0,19.83,19.83,0,0,1-3.07-1.76.65.65,0,0,1-.33-.57,3.08,3.08,0,0,1,1.4-3,3.4,3.4,0,0,1,3.75-.28A2.42,2.42,0,0,1,393.09,73.85Z"/></svg>